<svg xmlns="http://www.w3.org/2000/svg" xmlns:xlink="http://www.w3.org/1999/xlink" contentStyleType="text/css" data-diagram-type="CLASS" height="1504px" preserveAspectRatio="none" style="width:1216px;height:1504px;background:#FFFFFF;" version="1.1" viewBox="0 0 1216 1504" width="1216px" zoomAndPan="magnify"><defs/><g><!--class Address--><g class="entity" data-entity="Address" data-source-line="3" data-uid="ent0002" id="entity_Address"><rect fill="#F1F1F1" height="105.1563" rx="2.5" ry="2.5" style="stroke:#181818;stroke-width:0.5;" width="126.8232" x="102.58" y="347.18"/><ellipse cx="134.912" cy="367.3128" fill="#ADD1B2" rx="11" ry="11" style="stroke:#181818;stroke-width:1;"/><path d="M137.8808,372.9534 Q137.3027,373.2503 136.662,373.3909 Q136.0214,373.5472 135.3183,373.5472 Q132.8183,373.5472 131.4902,371.9066 Q130.1777,370.2503 130.1777,367.1253 Q130.1777,364.0003 131.4902,362.3441 Q132.8183,360.6878 135.3183,360.6878 Q136.0214,360.6878 136.662,360.8441 Q137.3183,361.0003 137.8808,361.2972 L137.8808,364.0159 Q137.2558,363.4378 136.662,363.1722 Q136.0683,362.8909 135.4433,362.8909 Q134.0995,362.8909 133.412,363.9691 Q132.7245,365.0316 132.7245,367.1253 Q132.7245,369.2191 133.412,370.2972 Q134.0995,371.3597 135.4433,371.3597 Q136.0683,371.3597 136.662,371.0941 Q137.2558,370.8128 137.8808,370.2347 L137.8808,372.9534 Z " fill="#000000"/><text fill="#000000" font-family="sans-serif" font-size="12" font-style="italic" lengthAdjust="spacing" textLength="48.6387" x="156.5981" y="363.3187">&#171;Serial&#187;</text><text fill="#000000" font-family="sans-serif" font-size="14" lengthAdjust="spacing" textLength="56.3076" x="152.7636" y="379.1439">Address</text><line style="stroke:#181818;stroke-width:0.5;" x1="103.58" x2="228.4032" y1="387.4456" y2="387.4456"/><text fill="#000000" font-family="sans-serif" font-size="14" lengthAdjust="spacing" textLength="100.1123" x="108.58" y="404.4407">-street : string</text><text fill="#000000" font-family="sans-serif" font-size="14" lengthAdjust="spacing" textLength="84.2188" x="108.58" y="420.7376">-city : string</text><text fill="#000000" font-family="sans-serif" font-size="14" lengthAdjust="spacing" textLength="114.8232" x="108.58" y="437.0345">-zipCode : string</text><line style="stroke:#181818;stroke-width:0.5;" x1="103.58" x2="228.4032" y1="444.3363" y2="444.3363"/></g><!--class Person--><g class="entity" data-entity="Person" data-source-line="9" data-uid="ent0003" id="entity_Person"><rect fill="#F1F1F1" height="210.9688" rx="2.5" ry="2.5" style="stroke:#181818;stroke-width:0.5;" width="323.6641" x="120.16" y="7"/><ellipse cx="253.9701" cy="23" fill="#A9DCDF" rx="11" ry="11" style="stroke:#181818;stroke-width:1;"/><path d="M254.0794,18.3438 L252.9232,23.4219 L255.2513,23.4219 L254.0794,18.3438 Z M252.5951,16.1094 L255.5794,16.1094 L258.9388,28.5 L256.4857,28.5 L255.7201,25.4375 L252.4388,25.4375 L251.6888,28.5 L249.2513,28.5 L252.5951,16.1094 Z " fill="#000000"/><text fill="#000000" font-family="sans-serif" font-size="14" font-style="italic" lengthAdjust="spacing" textLength="47.5439" x="274.4701" y="27.8467">Person</text><line style="stroke:#181818;stroke-width:0.5;" x1="121.16" x2="442.8241" y1="39" y2="39"/><text fill="#000000" font-family="sans-serif" font-size="14" lengthAdjust="spacing" textLength="126.6494" x="126.16" y="55.9951">#id : int {unique}</text><text fill="#000000" font-family="sans-serif" font-size="14" lengthAdjust="spacing" textLength="311.6641" x="126.16" y="72.292">#name : string {required, min=2, max=50}</text><text fill="#000000" font-family="sans-serif" font-size="14" lengthAdjust="spacing" textLength="104.1455" x="126.16" y="88.5889">#email : string</text><text fill="#000000" font-family="sans-serif" font-size="14" lengthAdjust="spacing" textLength="136.9648" x="126.16" y="104.8857">#address : Address</text><text fill="#000000" font-family="sans-serif" font-size="14" lengthAdjust="spacing" textLength="288.2305" x="126.16" y="121.1826">#contactMethods : Array&lt;string, string&gt;</text><line style="stroke:#181818;stroke-width:1;" x1="121.16" x2="442.8241" y1="128.4844" y2="128.4844"/><text fill="#000000" font-family="sans-serif" font-size="14" lengthAdjust="spacing" textLength="90.5283" x="126.16" y="145.4795">+getId() : int</text><text fill="#000000" font-family="sans-serif" font-size="14" lengthAdjust="spacing" textLength="140.752" x="126.16" y="161.7764">+getName() : string</text><text fill="#000000" font-family="sans-serif" font-size="14" lengthAdjust="spacing" textLength="138.291" x="126.16" y="178.0732">+getEmail() : string</text><text fill="#000000" font-family="sans-serif" font-size="14" lengthAdjust="spacing" textLength="218.5518" x="126.16" y="194.3701">+setEmail(email : string) : void</text><text fill="#000000" font-family="sans-serif" font-size="14" lengthAdjust="spacing" textLength="189.7588" x="126.16" y="210.667">#validateName() : boolean</text></g><!--class Customer--><g class="entity" data-entity="Customer" data-source-line="23" data-uid="ent0004" id="entity_Customer"><rect fill="#F1F1F1" height="178.375" rx="2.5" ry="2.5" style="stroke:#181818;stroke-width:0.5;" width="549.9883" x="7" y="646.72"/><ellipse cx="243.7422" cy="662.72" fill="#ADD1B2" rx="11" ry="11" style="stroke:#181818;stroke-width:1;"/><path d="M246.7109,668.3606 Q246.1328,668.6575 245.4922,668.7981 Q244.8516,668.9544 244.1484,668.9544 Q241.6484,668.9544 240.3203,667.3138 Q239.0078,665.6575 239.0078,662.5325 Q239.0078,659.4075 240.3203,657.7513 Q241.6484,656.095 244.1484,656.095 Q244.8516,656.095 245.4922,656.2513 Q246.1484,656.4075 246.7109,656.7044 L246.7109,659.4231 Q246.0859,658.845 245.4922,658.5794 Q244.8984,658.2981 244.2734,658.2981 Q242.9297,658.2981 242.2422,659.3763 Q241.5547,660.4388 241.5547,662.5325 Q241.5547,664.6263 242.2422,665.7044 Q242.9297,666.7669 244.2734,666.7669 Q244.8984,666.7669 245.4922,666.5013 Q246.0859,666.22 246.7109,665.6419 L246.7109,668.3606 Z " fill="#000000"/><text fill="#000000" font-family="sans-serif" font-size="14" lengthAdjust="spacing" textLength="68.0039" x="264.2422" y="667.5667">Customer</text><line style="stroke:#181818;stroke-width:0.5;" x1="8" x2="555.9883" y1="678.72" y2="678.72"/><text fill="#000000" font-family="sans-serif" font-size="14" lengthAdjust="spacing" textLength="472.3975" x="13" y="695.7151">-driverLicenseNumber : string {unique, required, min=5, max=15}</text><text fill="#000000" font-family="sans-serif" font-size="14" lengthAdjust="spacing" textLength="263.0059" x="13" y="712.012">-rentalHistory : List&lt;RentalContract&gt;</text><text fill="#000000" font-family="sans-serif" font-size="14" lengthAdjust="spacing" textLength="197.5244" x="13" y="728.3089">-licenseScan : BinaryStream</text><line style="stroke:#181818;stroke-width:1;" x1="8" x2="555.9883" y1="735.6106" y2="735.6106"/><text fill="#000000" font-family="sans-serif" font-size="14" lengthAdjust="spacing" textLength="251.5488" x="13" y="752.6057">+getDriverLicenseNumber() : string</text><text fill="#000000" font-family="sans-serif" font-size="14" lengthAdjust="spacing" textLength="307.5693" x="13" y="768.9026">+getRentalHistory() : List&lt;RentalContract&gt;</text><text fill="#000000" font-family="sans-serif" font-size="14" lengthAdjust="spacing" textLength="314.583" x="13" y="785.1995">+addRental(contract : RentalContract) : void</text><text fill="#000000" font-family="sans-serif" font-size="14" lengthAdjust="spacing" textLength="342.4053" x="13" y="801.4964">+uploadLicenseScan(scan : BinaryStream) : void</text><text fill="#000000" font-family="sans-serif" font-size="14" lengthAdjust="spacing" textLength="537.9883" x="13" y="817.7932">+requestRental(car : Car, startDate : Date, endDate : Date) : RentalContract</text></g><!--class Employee--><g class="entity" data-entity="Employee" data-source-line="35" data-uid="ent0005" id="entity_Employee"><rect fill="#F1F1F1" height="162.0781" rx="2.5" ry="2.5" style="stroke:#181818;stroke-width:0.5;" width="576.9355" x="334.53" y="318.71"/><ellipse cx="584.0793" cy="334.71" fill="#ADD1B2" rx="11" ry="11" style="stroke:#181818;stroke-width:1;"/><path d="M587.0481,340.3506 Q586.4699,340.6475 585.8293,340.7881 Q585.1887,340.9444 584.4856,340.9444 Q581.9856,340.9444 580.6574,339.3038 Q579.3449,337.6475 579.3449,334.5225 Q579.3449,331.3975 580.6574,329.7413 Q581.9856,328.085 584.4856,328.085 Q585.1887,328.085 585.8293,328.2413 Q586.4856,328.3975 587.0481,328.6944 L587.0481,331.4131 Q586.4231,330.835 585.8293,330.5694 Q585.2356,330.2881 584.6106,330.2881 Q583.2668,330.2881 582.5793,331.3663 Q581.8918,332.4288 581.8918,334.5225 Q581.8918,336.6163 582.5793,337.6944 Q583.2668,338.7569 584.6106,338.7569 Q585.2356,338.7569 585.8293,338.4913 Q586.4231,338.21 587.0481,337.6319 L587.0481,340.3506 Z " fill="#000000"/><text fill="#000000" font-family="sans-serif" font-size="14" lengthAdjust="spacing" textLength="69.3369" x="604.5793" y="339.5567">Employee</text><line style="stroke:#181818;stroke-width:0.5;" x1="335.53" x2="910.4655" y1="350.71" y2="350.71"/><text fill="#000000" font-family="sans-serif" font-size="14" lengthAdjust="spacing" textLength="211.251" x="340.53" y="367.7051">-employeeId : string {unique}</text><text fill="#000000" font-family="sans-serif" font-size="14" lengthAdjust="spacing" textLength="114.3105" x="340.53" y="384.002">-position : string</text><text fill="#000000" font-family="sans-serif" font-size="14" lengthAdjust="spacing" textLength="112.7246" x="340.53" y="400.2989">-hireDate : Date</text><line style="stroke:#181818;stroke-width:1;" x1="335.53" x2="910.4655" y1="407.6006" y2="407.6006"/><text fill="#000000" font-family="sans-serif" font-size="14" lengthAdjust="spacing" textLength="181.8018" x="340.53" y="424.5957">+getEmployeeId() : string</text><text fill="#000000" font-family="sans-serif" font-size="14" lengthAdjust="spacing" textLength="154.458" x="340.53" y="440.8926">+getPosition() : string</text><text fill="#000000" font-family="sans-serif" font-size="14" lengthAdjust="spacing" textLength="564.9355" x="340.53" y="457.1895">+createCar(vin : string, plate : string, model : CarModel, rate : BigDecimal) : Car</text><text fill="#000000" font-family="sans-serif" font-size="14" lengthAdjust="spacing" textLength="226.8574" x="340.53" y="473.4864">+inspectCar(car : Car) : boolean</text></g><!--class CarModel--><g class="entity" data-entity="CarModel" data-source-line="46" data-uid="ent0006" id="entity_CarModel"><rect fill="#F1F1F1" height="243.5625" rx="2.5" ry="2.5" style="stroke:#181818;stroke-width:0.5;" width="262.9404" x="946.52" y="277.97"/><ellipse cx="1040.6679" cy="293.97" fill="#ADD1B2" rx="11" ry="11" style="stroke:#181818;stroke-width:1;"/><path d="M1043.6367,299.6106 Q1043.0586,299.9075 1042.4179,300.0481 Q1041.7773,300.2044 1041.0742,300.2044 Q1038.5742,300.2044 1037.2461,298.5638 Q1035.9336,296.9075 1035.9336,293.7825 Q1035.9336,290.6575 1037.2461,289.0013 Q1038.5742,287.345 1041.0742,287.345 Q1041.7773,287.345 1042.4179,287.5013 Q1043.0742,287.6575 1043.6367,287.9544 L1043.6367,290.6731 Q1043.0117,290.095 1042.4179,289.8294 Q1041.8242,289.5481 1041.1992,289.5481 Q1039.8554,289.5481 1039.1679,290.6263 Q1038.4804,291.6888 1038.4804,293.7825 Q1038.4804,295.8763 1039.1679,296.9544 Q1039.8554,298.0169 1041.1992,298.0169 Q1041.8242,298.0169 1042.4179,297.7513 Q1043.0117,297.47 1043.6367,296.8919 L1043.6367,299.6106 Z " fill="#000000"/><text fill="#000000" font-family="sans-serif" font-size="14" lengthAdjust="spacing" textLength="66.1445" x="1061.1679" y="298.8167">CarModel</text><line style="stroke:#181818;stroke-width:0.5;" x1="947.52" x2="1208.4604" y1="309.97" y2="309.97"/><text fill="#000000" font-family="sans-serif" font-size="14" lengthAdjust="spacing" textLength="163.8027" x="952.52" y="326.9651">-modelId : int {unique}</text><text fill="#000000" font-family="sans-serif" font-size="14" lengthAdjust="spacing" textLength="99.8389" x="952.52" y="343.262">-brand : string</text><text fill="#000000" font-family="sans-serif" font-size="14" lengthAdjust="spacing" textLength="143.7529" x="952.52" y="359.5589">-modelName : string</text><text fill="#000000" font-family="sans-serif" font-size="14" lengthAdjust="spacing" textLength="250.9404" x="952.52" y="375.8557">-year : int {min=2000, max=2025}</text><text fill="#000000" font-family="sans-serif" font-size="14" lengthAdjust="spacing" textLength="178.418" x="952.52" y="392.1526">-features : Array&lt;string&gt;</text><line style="stroke:#181818;stroke-width:1;" x1="947.52" x2="1208.4604" y1="399.4544" y2="399.4544"/><text fill="#000000" font-family="sans-serif" font-size="14" lengthAdjust="spacing" textLength="132.5625" x="952.52" y="416.4495">+getModelId() : int</text><text fill="#000000" font-family="sans-serif" font-size="14" lengthAdjust="spacing" textLength="141.1484" x="952.52" y="432.7464">+getBrand() : string</text><text fill="#000000" font-family="sans-serif" font-size="14" lengthAdjust="spacing" textLength="182.7861" x="952.52" y="449.0432">+getModelName() : string</text><text fill="#000000" font-family="sans-serif" font-size="14" lengthAdjust="spacing" textLength="109.0127" x="952.52" y="465.3401">+getYear() : int</text><text fill="#000000" font-family="sans-serif" font-size="14" lengthAdjust="spacing" textLength="222.1338" x="952.52" y="481.637">+getFeatures() : Array&lt;string&gt;</text><text fill="#000000" font-family="sans-serif" font-size="14" lengthAdjust="spacing" textLength="204.9619" x="952.52" y="497.9339">+addFeature(f : string) : void</text><text fill="#000000" font-family="sans-serif" font-size="14" lengthAdjust="spacing" textLength="232.0801" x="952.52" y="514.2307">+removeFeature(f : string) : void</text></g><!--class Car--><g class="entity" data-entity="Car" data-source-line="62" data-uid="ent0007" id="entity_Car"><rect fill="#F1F1F1" height="308.75" rx="2.5" ry="2.5" style="stroke:#181818;stroke-width:0.5;" width="408.5801" x="591.7" y="581.54"/><ellipse cx="779.6849" cy="597.54" fill="#ADD1B2" rx="11" ry="11" style="stroke:#181818;stroke-width:1;"/><path d="M782.6536,603.1806 Q782.0755,603.4775 781.4349,603.6181 Q780.7942,603.7744 780.0911,603.7744 Q777.5911,603.7744 776.263,602.1338 Q774.9505,600.4775 774.9505,597.3525 Q774.9505,594.2275 776.263,592.5713 Q777.5911,590.915 780.0911,590.915 Q780.7942,590.915 781.4349,591.0713 Q782.0911,591.2275 782.6536,591.5244 L782.6536,594.2431 Q782.0286,593.665 781.4349,593.3994 Q780.8411,593.1181 780.2161,593.1181 Q778.8724,593.1181 778.1849,594.1963 Q777.4974,595.2588 777.4974,597.3525 Q777.4974,599.4463 778.1849,600.5244 Q778.8724,601.5869 780.2161,601.5869 Q780.8411,601.5869 781.4349,601.3213 Q782.0286,601.04 782.6536,600.4619 L782.6536,603.1806 Z " fill="#000000"/><text fill="#000000" font-family="sans-serif" font-size="14" lengthAdjust="spacing" textLength="24.1104" x="800.1849" y="602.3867">Car</text><line style="stroke:#181818;stroke-width:0.5;" x1="592.7" x2="999.2801" y1="613.54" y2="613.54"/><text fill="#000000" font-family="sans-serif" font-size="14" lengthAdjust="spacing" textLength="218.3535" x="597.7" y="630.5351">-vin : string {unique, required}</text><text fill="#000000" font-family="sans-serif" font-size="14" lengthAdjust="spacing" textLength="213.0146" x="597.7" y="646.832">-licensePlate : string {unique}</text><text fill="#000000" font-family="sans-serif" font-size="14" lengthAdjust="spacing" textLength="101.876" x="597.7" y="663.1289">-status : string</text><text fill="#000000" font-family="sans-serif" font-size="14" lengthAdjust="spacing" textLength="266.9092" x="597.7" y="679.4257">-mileage : int {min=0, max=500000}</text><text fill="#000000" font-family="sans-serif" font-size="14" lengthAdjust="spacing" textLength="346.8555" x="597.7" y="695.7226">-dailyRate : BigDecimal {min=10.0, max=500.0}</text><text fill="#000000" font-family="sans-serif" font-size="14" lengthAdjust="spacing" textLength="154.998" x="597.7" y="712.0195">-photo : BinaryStream</text><text fill="#000000" font-family="sans-serif" font-size="14" lengthAdjust="spacing" textLength="128.4063" x="597.7" y="728.3164">-model : CarModel</text><line style="stroke:#181818;stroke-width:1;" x1="592.7" x2="999.2801" y1="735.6181" y2="735.6181"/><text fill="#000000" font-family="sans-serif" font-size="14" lengthAdjust="spacing" textLength="121.7891" x="597.7" y="752.6132">+getVin() : string</text><text fill="#000000" font-family="sans-serif" font-size="14" lengthAdjust="spacing" textLength="187.2432" x="597.7" y="768.9101">+getLicensePlate() : string</text><text fill="#000000" font-family="sans-serif" font-size="14" lengthAdjust="spacing" textLength="144.0605" x="597.7" y="785.207">+getStatus() : string</text><text fill="#000000" font-family="sans-serif" font-size="14" lengthAdjust="spacing" textLength="193.0059" x="597.7" y="801.5039">+setStatus(s : string) : void</text><text fill="#000000" font-family="sans-serif" font-size="14" lengthAdjust="spacing" textLength="132.0635" x="597.7" y="817.8007">+getMileage() : int</text><text fill="#000000" font-family="sans-serif" font-size="14" lengthAdjust="spacing" textLength="215.2842" x="597.7" y="834.0976">+updateMileage(m : int) : void</text><text fill="#000000" font-family="sans-serif" font-size="14" lengthAdjust="spacing" textLength="206.5615" x="597.7" y="850.3945">+getDailyRate() : BigDecimal</text><text fill="#000000" font-family="sans-serif" font-size="14" lengthAdjust="spacing" textLength="396.5801" x="597.7" y="866.6914">+isAvailable(startDate : Date, endDate : Date) : boolean</text><text fill="#000000" font-family="sans-serif" font-size="14" lengthAdjust="spacing" textLength="300.4873" x="597.7" y="882.9882">+attachPhoto(photo : BinaryStream) : void</text></g><!--class RentalContract--><g class="entity" data-entity="RentalContract" data-source-line="82" data-uid="ent0008" id="entity_RentalContract"><rect fill="#F1F1F1" height="308.75" rx="2.5" ry="2.5" style="stroke:#181818;stroke-width:0.5;" width="258.75" x="409.62" y="950.29"/><ellipse cx="482.0468" cy="966.29" fill="#ADD1B2" rx="11" ry="11" style="stroke:#181818;stroke-width:1;"/><path d="M485.0155,971.9306 Q484.4374,972.2275 483.7968,972.3681 Q483.1561,972.5244 482.453,972.5244 Q479.953,972.5244 478.6249,970.8838 Q477.3124,969.2275 477.3124,966.1025 Q477.3124,962.9775 478.6249,961.3213 Q479.953,959.665 482.453,959.665 Q483.1561,959.665 483.7968,959.8213 Q484.453,959.9775 485.0155,960.2744 L485.0155,962.9931 Q484.3905,962.415 483.7968,962.1494 Q483.203,961.8681 482.578,961.8681 Q481.2343,961.8681 480.5468,962.9463 Q479.8593,964.0088 479.8593,966.1025 Q479.8593,968.1963 480.5468,969.2744 Q481.2343,970.3369 482.578,970.3369 Q483.203,970.3369 483.7968,970.0713 Q484.3905,969.79 485.0155,969.2119 L485.0155,971.9306 Z " fill="#000000"/><text fill="#000000" font-family="sans-serif" font-size="14" lengthAdjust="spacing" textLength="105.3965" x="502.5468" y="971.1367">RentalContract</text><line style="stroke:#181818;stroke-width:0.5;" x1="410.62" x2="667.37" y1="982.29" y2="982.29"/><text fill="#000000" font-family="sans-serif" font-size="14" lengthAdjust="spacing" textLength="178.3564" x="415.62" y="999.2851">-contractId : int {unique}</text><text fill="#000000" font-family="sans-serif" font-size="14" lengthAdjust="spacing" textLength="199.7393" x="415.62" y="1015.582">-startDate : Date {required}</text><text fill="#000000" font-family="sans-serif" font-size="14" lengthAdjust="spacing" textLength="193.5049" x="415.62" y="1031.8789">-endDate : Date {required}</text><text fill="#000000" font-family="sans-serif" font-size="14" lengthAdjust="spacing" textLength="246.75" x="415.62" y="1048.1757">-agreementText : CharacterStream</text><text fill="#000000" font-family="sans-serif" font-size="14" lengthAdjust="spacing" textLength="64.8115" x="415.62" y="1064.4726">-car : Car</text><text fill="#000000" font-family="sans-serif" font-size="14" lengthAdjust="spacing" textLength="152.5986" x="415.62" y="1080.7695">-customer : Customer</text><text fill="#000000" font-family="sans-serif" font-size="14" lengthAdjust="spacing" textLength="198.1807" x="415.62" y="1097.0664">-payments : List&lt;Payment&gt;</text><text fill="#000000" font-family="sans-serif" font-size="14" lengthAdjust="spacing" textLength="119.5879" x="415.62" y="1113.3632">-closed : boolean</text><line style="stroke:#181818;stroke-width:1;" x1="410.62" x2="667.37" y1="1120.665" y2="1120.665"/><text fill="#000000" font-family="sans-serif" font-size="14" lengthAdjust="spacing" textLength="150.7529" x="415.62" y="1137.6601">+getContractId() : int</text><text fill="#000000" font-family="sans-serif" font-size="14" lengthAdjust="spacing" textLength="145.1953" x="415.62" y="1153.957">+getPeriod() : String</text><text fill="#000000" font-family="sans-serif" font-size="14" lengthAdjust="spacing" textLength="107.4814" x="415.62" y="1170.2539">+getCar() : Car</text><text fill="#000000" font-family="sans-serif" font-size="14" lengthAdjust="spacing" textLength="195.2686" x="415.62" y="1186.5507">+getCustomer() : Customer</text><text fill="#000000" font-family="sans-serif" font-size="14" lengthAdjust="spacing" textLength="238.5947" x="415.62" y="1202.8476">+addPayment(p : Payment) : void</text><text fill="#000000" font-family="sans-serif" font-size="14" lengthAdjust="spacing" textLength="214.1221" x="415.62" y="1219.1445">+calculateTotal() : BigDecimal</text><text fill="#000000" font-family="sans-serif" font-size="14" lengthAdjust="spacing" textLength="162.1826" x="415.62" y="1235.4414">+closeContract() : void</text><text fill="#000000" font-family="sans-serif" font-size="14" lengthAdjust="spacing" textLength="146.9795" x="415.62" y="1251.7382">+isActive() : boolean</text></g><!--class Payment--><g class="entity" data-entity="Payment" data-source-line="102" data-uid="ent0009" id="entity_Payment"><rect fill="#F1F1F1" height="178.375" rx="2.5" ry="2.5" style="stroke:#181818;stroke-width:0.5;" width="314.9893" x="381.5" y="1319.03"/><ellipse cx="503.7847" cy="1335.03" fill="#ADD1B2" rx="11" ry="11" style="stroke:#181818;stroke-width:1;"/><path d="M506.7534,1340.6706 Q506.1753,1340.9675 505.5347,1341.1081 Q504.894,1341.2644 504.1909,1341.2644 Q501.6909,1341.2644 500.3628,1339.6238 Q499.0503,1337.9675 499.0503,1334.8425 Q499.0503,1331.7175 500.3628,1330.0613 Q501.6909,1328.405 504.1909,1328.405 Q504.894,1328.405 505.5347,1328.5613 Q506.1909,1328.7175 506.7534,1329.0144 L506.7534,1331.7331 Q506.1284,1331.155 505.5347,1330.8894 Q504.9409,1330.6081 504.3159,1330.6081 Q502.9722,1330.6081 502.2847,1331.6863 Q501.5972,1332.7488 501.5972,1334.8425 Q501.5972,1336.9363 502.2847,1338.0144 Q502.9722,1339.0769 504.3159,1339.0769 Q504.9409,1339.0769 505.5347,1338.8113 Q506.1284,1338.53 506.7534,1337.9519 L506.7534,1340.6706 Z " fill="#000000"/><text fill="#000000" font-family="sans-serif" font-size="14" lengthAdjust="spacing" textLength="61.9199" x="524.2847" y="1339.8767">Payment</text><line style="stroke:#181818;stroke-width:0.5;" x1="382.5" x2="695.4893" y1="1351.03" y2="1351.03"/><text fill="#000000" font-family="sans-serif" font-size="14" lengthAdjust="spacing" textLength="182.5742" x="387.5" y="1368.0251">-paymentId : int {unique}</text><text fill="#000000" font-family="sans-serif" font-size="14" lengthAdjust="spacing" textLength="302.9893" x="387.5" y="1384.322">-amount : BigDecimal {min=0.0, required}</text><text fill="#000000" font-family="sans-serif" font-size="14" lengthAdjust="spacing" textLength="83.6992" x="387.5" y="1400.6189">-date : Date</text><text fill="#000000" font-family="sans-serif" font-size="14" lengthAdjust="spacing" textLength="112.9229" x="387.5" y="1416.9157">-method : string</text><text fill="#000000" font-family="sans-serif" font-size="14" lengthAdjust="spacing" textLength="146.248" x="387.5" y="1433.2126">-processed : boolean</text><line style="stroke:#181818;stroke-width:1;" x1="382.5" x2="695.4893" y1="1440.5144" y2="1440.5144"/><text fill="#000000" font-family="sans-serif" font-size="14" lengthAdjust="spacing" textLength="193.7441" x="387.5" y="1457.5095">+getAmount() : BigDecimal</text><text fill="#000000" font-family="sans-serif" font-size="14" lengthAdjust="spacing" textLength="146.3506" x="387.5" y="1473.8064">+process() : boolean</text><text fill="#000000" font-family="sans-serif" font-size="14" lengthAdjust="spacing" textLength="138.1748" x="387.5" y="1490.1032">+refund() : boolean</text></g><!--reverse link Person to Address--><g class="link" data-entity-1="Person" data-entity-2="Address" data-source-line="114" data-uid="lnk10" id="link_Person_Address"><path codeLine="114" d="M234.9392,229.2059 C217.0892,273.0959 201.66,311.05 187.06,346.96" fill="none" id="Person-backto-Address" style="stroke:#181818;stroke-width:1;"/><polygon fill="#181818" points="239.46,218.09,233.4943,222.141,234.9392,229.2059,240.9049,225.1549,239.46,218.09" style="stroke:#181818;stroke-width:1;"/></g><!--reverse link Person to Customer--><g class="link" data-entity-1="Person" data-entity-2="Customer" data-source-line="116" data-uid="lnk11" id="link_Person_Customer"><path codeLine="116" d="M281.99,236.2 C281.99,356.4 281.99,533.46 281.99,646.39" fill="none" id="Person-backto-Customer" style="stroke:#181818;stroke-width:1;"/><polygon fill="none" points="281.99,218.2,275.99,236.2,287.99,236.2,281.99,218.2" style="stroke:#181818;stroke-width:1;"/></g><!--reverse link Person to Employee--><g class="link" data-entity-1="Person" data-entity-2="Employee" data-source-line="117" data-uid="lnk12" id="link_Person_Employee"><path codeLine="117" d="M420.8356,229.6401 C460.3756,262.7201 489.63,287.18 526.82,318.29" fill="none" id="Person-backto-Employee" style="stroke:#181818;stroke-width:1;"/><polygon fill="none" points="407.03,218.09,416.9856,234.242,424.6857,225.0382,407.03,218.09" style="stroke:#181818;stroke-width:1;"/></g><!--reverse link CarModel to Car--><g class="link" data-entity-1="CarModel" data-entity-2="Car" data-source-line="119" data-uid="lnk13" id="link_CarModel_Car"><path codeLine="119" d="M968.0498,531.03 C951.8098,550.27 942.57,561.22 925.81,581.09" fill="none" id="CarModel-backto-Car" style="stroke:#181818;stroke-width:1;"/><polygon fill="none" points="975.79,521.86,968.8632,523.865,968.0498,531.03,974.9766,529.0251,975.79,521.86" style="stroke:#181818;stroke-width:1;"/><text fill="#000000" font-family="sans-serif" font-size="13" lengthAdjust="spacing" textLength="8.271" x="961.6581" y="541.4237">1</text><text fill="#000000" font-family="sans-serif" font-size="13" lengthAdjust="spacing" textLength="23.0356" x="908.542" y="570.2975">1..*</text></g><!--reverse link Customer to RentalContract--><g class="link" data-entity-1="Customer" data-entity-2="RentalContract" data-source-line="121" data-uid="lnk14" id="link_Customer_RentalContract"><path codeLine="121" d="M350.7656,835.0479 C376.9756,872.4579 401.42,907.34 431.22,949.86" fill="none" id="Customer-backto-RentalContract" style="stroke:#181818;stroke-width:1;"/><polygon fill="none" points="343.88,825.22,344.0468,832.4292,350.7656,835.0479,350.5988,827.8388,343.88,825.22" style="stroke:#181818;stroke-width:1;"/><text fill="#000000" font-family="sans-serif" font-size="13" lengthAdjust="spacing" textLength="8.271" x="340.6849" y="845.3097">1</text><text fill="#000000" font-family="sans-serif" font-size="13" lengthAdjust="spacing" textLength="23.0356" x="402.4435" y="939.0685">1..*</text></g><!--reverse link Car to RentalContract--><g class="link" data-entity-1="Car" data-entity-2="RentalContract" data-source-line="122" data-uid="lnk15" id="link_Car_RentalContract"><path codeLine="122" d="M681.4207,900.4154 C667.6707,920.0254 660.49,930.28 646.74,949.9" fill="none" id="Car-backto-RentalContract" style="stroke:#181818;stroke-width:1;"/><polygon fill="none" points="688.31,890.59,681.5902,893.2063,681.4207,900.4154,688.1405,897.7991,688.31,890.59" style="stroke:#181818;stroke-width:1;"/><text fill="#000000" font-family="sans-serif" font-size="13" lengthAdjust="spacing" textLength="8.271" x="674.9071" y="910.5155">1</text><text fill="#000000" font-family="sans-serif" font-size="13" lengthAdjust="spacing" textLength="23.0356" x="628.4027" y="939.1104">0..*</text></g><!--reverse link RentalContract to Payment--><g class="link" data-entity-1="RentalContract" data-entity-2="Payment" data-source-line="124" data-uid="lnk16" id="link_RentalContract_Payment"><path codeLine="124" d="M538.99,1271.53 C538.99,1291.86 538.99,1300.12 538.99,1318.82" fill="none" id="RentalContract-backto-Payment" style="stroke:#181818;stroke-width:1;"/><polygon fill="#181818" points="538.99,1259.53,534.99,1265.53,538.99,1271.53,542.99,1265.53,538.99,1259.53" style="stroke:#181818;stroke-width:1;"/></g><!--link Employee to Car--><g class="link" data-entity-1="Employee" data-entity-2="Car" data-source-line="126" data-uid="lnk17" id="link_Employee_Car"><path codeLine="126" d="M664.65,481.22 C680.25,511.34 695.7717,541.3316 713.6617,575.8916" fill="none" id="Employee-to-Car" style="stroke:#181818;stroke-width:1;"/><polygon fill="#181818" points="716.42,581.22,715.8349,571.3885,714.1215,576.7797,708.7303,575.0662,716.42,581.22" style="stroke:#181818;stroke-width:1;"/></g><!--SRC=[ZLPBRzim3BxxLnZTnLsJmYtGIv4LQDCEAz0MGJCCs56ns4IOBNcI72ph-jz7lVoGtM6-s2Ofale-afBwmNXD9AdIeYHANMijsQRHS5y8lcQ_8SsJn6hIQqebu7knM8DafBowIb-J59-vqX90fvSfVZ2-TSA2wKCa-itgfQ3GIT-IX6pmcnJQXKzN89NWtl47Hj6MSPs-DfpzRE3DYJcfEYVfguIV3PD0Psd5-ATpV95VdovoRmmLOUKmaG_4R-KoRCg9SSiQKta4lHFKQgKaXuLREVCUhjnUvlPriWLzJxDZbsOhUi84hR0NrCZlJ2uZXGgAOQh6R2yOTRdjISaeqT2wtWXH0k46GmVTib5QL203ArIoFSW7LW1NyDHK6rHre3b0P-aGl0i7tjc50syk0H4flp3qB0sR3_YrUBR29O9bYFDub2xEkY0SxMuO9_AmnheWLOpNxJYlAQoU-w6jmRl1Jv1F9yyAhq3peUK0pPEcBWMX3rtEcHedFbnYW0AbGnnYm5mIQSg2I7sBrA30l6OfSDhxFnxbqd5sLs4Y1u306VZ_UpgYoZDI2yKq4pnghHros8iPOtxN-fs2UkLzZdG5mg01TvdjMHTnbjQb2nN-A-pgqk7nQ3wnh9p13TlUGi4gKXuxjVFBkAgXqCPn2-HqJNk70HyRw7voAimtad0QmMBjd_hZmiaFOCDQ9tPev7dkIlyyFm_5_uARRt0wH8DWD00UNLAZAN1Z4fh2-p5aDQNyZgcDN7tsgLZ5E1dJ0DuaUvaU85Y_bTZ3Fwpwe0Uy-xIFPyRReFLNWwA8oC4cqOsAsM78zXRwHEHXUfl7hwKu5G_FSK4v-xFyj5jo6bRKEw75v1YAApNcyXlZKwGyzBOufL_RxKrDTgzHxx1Ygi6XCEIygSsm3whAgKPBRmCoTd67ZUyoTRr70x8f8VkV8HMwprMKngDmjp90PbDmZijcEED21OM1_4xJndbrfxat6AOvKfCjNZqgZFmLVfcXlzmH4mrad_HsnlZVS51UjcUcBnjoCAvKE6jMxjytV54A1JJ2gLSwotQde_R5MmqJJhmU5ixIDtix6etC9-KK_GnDd_kaiXgL_djO5mKfYyOKwbTXJggfoh1R2Vbcm-LODON64thwak4Z1dOzOk-GIohHS3tHjRPf8oPfV7fLzXeMZOnQYWBlQ__YuTf6dTotNvsDgbt2I-DdTM_B_ZBwSJvlxub1jlY3mfQRlZ0SjKdI7bv7PqUfGDNHsUdfnoFBTTBUrY9bT5CmixYroASiagZlJBQUfIHfxnVp-PM9-nS0]--></g></svg>